</svg>
<svg version="1.1" xmlns="http://www.w3.org/2000/svg" viewBox="0 -2 24 28" height="24" width="28"><path d="M 11.96875 0 C 5.359375 0 0 5.359375 0 11.96875 C 0 18.578125 5.359375 23.9375 11.96875 23.9375 C 18.578125 23.9375 23.9375 18.578125 23.9375 11.96875 C 23.9375 5.359375 18.578125 0 11.96875 0 Z M 19.207031 8.777344 C 19.214844 8.917969 19.214844 9.058594 19.214844 9.203125 C 19.214844 14.316406 15.324219 19.605469 8.8125 19.605469 C 6.824219 19.605469 4.886719 19.035156 3.210938 17.960938 C 3.175781 17.9375 3.160156 17.894531 3.175781 17.855469 C 3.1875 17.816406 3.226562 17.792969 3.269531 17.796875 C 3.550781 17.832031 3.835938 17.847656 4.121094 17.847656 C 5.671875 17.847656 7.136719 17.371094 8.378906 16.460938 C 6.890625 16.335938 5.613281 15.332031 5.152344 13.894531 C 5.144531 13.867188 5.152344 13.832031 5.171875 13.808594 C 5.191406 13.785156 5.222656 13.777344 5.253906 13.78125 C 5.667969 13.859375 6.085938 13.863281 6.488281 13.800781 C 4.957031 13.324219 3.878906 11.886719 3.878906 10.253906 L 3.878906 10.203125 C 3.878906 10.171875 3.898438 10.144531 3.925781 10.128906 C 3.949219 10.113281 3.984375 10.113281 4.011719 10.128906 C 4.410156 10.351562 4.851562 10.492188 5.308594 10.546875 C 4.425781 9.847656 3.910156 8.78125 3.910156 7.644531 C 3.910156 6.988281 4.082031 6.339844 4.410156 5.777344 C 4.425781 5.75 4.453125 5.734375 4.480469 5.734375 C 4.511719 5.730469 4.539062 5.742188 4.558594 5.765625 C 6.359375 7.976562 9.011719 9.339844 11.847656 9.511719 C 11.800781 9.273438 11.777344 9.03125 11.777344 8.78125 C 11.777344 6.734375 13.441406 5.070312 15.488281 5.070312 C 16.496094 5.070312 17.46875 5.484375 18.167969 6.207031 C 18.953125 6.046875 19.699219 5.757812 20.390625 5.347656 C 20.421875 5.328125 20.464844 5.332031 20.492188 5.351562 C 20.519531 5.375 20.53125 5.414062 20.519531 5.449219 C 20.285156 6.183594 19.832031 6.824219 19.214844 7.285156 C 19.792969 7.183594 20.355469 7.011719 20.890625 6.777344 C 20.925781 6.761719 20.96875 6.769531 20.992188 6.800781 C 21.019531 6.832031 21.019531 6.875 21 6.90625 C 20.511719 7.632812 19.910156 8.265625 19.207031 8.777344 Z M 19.207031 8.777344 "/>
</svg>
